<?xml version="1.0" standalone="no"?>
<!DOCTYPE svg PUBLIC "-//W3C//DTD SVG 20010904//EN"
 "http://www.w3.org/TR/2001/REC-SVG-20010904/DTD/svg10.dtd">
<svg version="1.0" xmlns="http://www.w3.org/2000/svg"
 width="240.000000pt" height="240.000000pt" viewBox="0 0 240.000000 240.000000"
 preserveAspectRatio="xMidYMid meet">
<metadata>
Created by potrace 1.15, written by Peter Selinger 2001-2017
</metadata>
<g transform="translate(-30,275) scale(0.125,-0.125)" id="icon" stroke="none">
<path d="M1150 1429 l0 -360 -29 23 c-16 13 -51 42 -78 65 l-50 42 -35 -42
-36 -43 140 -119 c76 -66 143 -120 148 -120 4 0 71 54 148 119 l140 119 -36
43 -37 42 -49 -42 c-27 -22 -64 -54 -82 -69 l-34 -28 0 365 0 366 -55 0 -55 0
0 -361z"/>
<path d="M680 1065 l0 -455 530 0 530 0 0 455 0 455 -120 0 -120 0 0 -50 0
-50 70 0 70 0 0 -355 0 -355 -430 0 -430 0 0 355 0 355 70 0 70 0 0 50 0 50
-120 0 -120 0 0 -455z"/>
</g>
</svg>
