<?xml version="1.0" standalone="no"?>
<!DOCTYPE svg PUBLIC "-//W3C//DTD SVG 20010904//EN"
 "http://www.w3.org/TR/2001/REC-SVG-20010904/DTD/svg10.dtd">
<svg version="1.0" xmlns="http://www.w3.org/2000/svg"
 width="240.000000px" height="240.000000px" viewBox="0 0 240.000000 240.000000"
 preserveAspectRatio="xMidYMid meet">
<metadata>
Created by potrace 1.15, written by Peter Selinger 2001-2017
</metadata>
<g transform="translate(-35,275) scale(0.125,-0.125)" id="icon" stroke="none">
<path d="M720 1295 l0 -615 350 0 c279 0 349 3 343 13 -5 6 -19 29 -32 50
l-23 37 -269 0 -269 0 0 515 0 515 400 0 400 0 0 -295 0 -295 50 0 50 0 0 345
0 345 -500 0 -500 0 0 -615z"/>
<path d="M970 1615 l0 -45 255 0 255 0 0 45 0 45 -255 0 -255 0 0 -45z"/>
<path d="M970 1395 l0 -45 255 0 255 0 0 45 0 45 -255 0 -255 0 0 -45z"/>
<path d="M970 1175 l0 -45 185 0 185 0 0 45 0 45 -185 0 -185 0 0 -45z"/>
<path d="M1587 1116 c-119 -44 -179 -165 -143 -290 19 -66 73 -126 130 -147
35 -12 36 -15 36 -61 l0 -48 -35 0 -35 0 0 -50 0 -50 35 0 c31 0 35 -3 35 -25
0 -23 4 -25 45 -25 l45 0 0 125 c0 114 2 125 18 125 29 0 107 55 130 91 72
117 39 269 -73 334 -54 32 -134 41 -188 21z m132 -104 c100 -51 87 -211 -20
-243 -82 -25 -157 26 -166 114 -8 75 54 147 127 147 14 0 40 -8 59 -18z"/>
<path d="M970 955 l0 -45 185 0 c150 0 185 3 185 14 0 7 3 28 6 45 l7 31 -192
0 -191 0 0 -45z"/>
</g>
</svg>
