<?xml version="1.0" standalone="no"?>
<!DOCTYPE svg PUBLIC "-//W3C//DTD SVG 20010904//EN"
 "http://www.w3.org/TR/2001/REC-SVG-20010904/DTD/svg10.dtd">
<svg version="1.0" xmlns="http://www.w3.org/2000/svg"
 width="240.000000pt" height="240.000000pt" viewBox="0 0 240.000000 240.000000"
 preserveAspectRatio="xMidYMid meet">
<metadata>
Created by potrace 1.15, written by Peter Selinger 2001-2017
</metadata>
<g transform="translate(-30,275) scale(0.125,-0.125)" id="icon" stroke="none">
<path d="M645 1735 c-21 -20 -25 -34 -25 -80 l0 -55 -60 0 c-51 0 -65 -4 -85
-25 l-25 -24 0 -426 0 -426 25 -24 24 -25 278 0 c267 0 279 -1 291 -20 11 -18
23 -20 132 -20 109 0 121 2 132 20 12 19 24 20 291 20 l278 0 24 25 25 24 0
426 0 426 -25 24 c-19 20 -34 25 -75 25 l-50 0 0 55 c0 46 -4 60 -25 80 l-24
25 -255 0 -255 0 -16 -30 c-9 -16 -20 -30 -25 -30 -5 0 -16 14 -25 30 l-16 30
-245 0 -245 0 -24 -25z m513 -78 c22 -33 22 -35 22 -417 0 -299 -3 -381 -12
-372 -9 9 -77 12 -245 12 l-233 0 0 405 0 405 223 0 222 0 23 -33z m572 -372
l0 -405 -232 0 c-201 0 -234 -2 -250 -17 -17 -16 -18 -3 -18 372 0 387 0 389
23 422 l22 33 228 0 227 0 0 -405z m-1110 -90 l0 -336 25 -24 24 -25 233 0
232 0 36 -35 36 -35 34 35 34 35 238 0 239 0 24 25 25 24 0 336 0 335 40 0 40
0 0 -404 0 -404 -337 -3 c-186 -2 -492 -2 -680 0 l-343 3 0 404 0 404 50 0 50
0 0 -335z"/>
<path d="M820 1500 l0 -40 130 0 130 0 0 40 0 40 -130 0 -130 0 0 -40z"/>
<path d="M820 1350 l0 -40 130 0 130 0 0 40 0 40 -130 0 -130 0 0 -40z"/>
<path d="M1350 1500 l0 -40 130 0 130 0 0 40 0 40 -130 0 -130 0 0 -40z"/>
<path d="M1350 1350 l0 -40 130 0 130 0 0 40 0 40 -130 0 -130 0 0 -40z"/>
</g>
</svg>
