<?xml version="1.0" standalone="no"?>
<!DOCTYPE svg PUBLIC "-//W3C//DTD SVG 20010904//EN"
 "http://www.w3.org/TR/2001/REC-SVG-20010904/DTD/svg10.dtd">
<svg version="1.0" xmlns="http://www.w3.org/2000/svg"
 width="240.000000pt" height="240.000000pt" viewBox="0 0 240.000000 240.000000"
 preserveAspectRatio="xMidYMid meet">
<metadata>
Created by potrace 1.15, written by Peter Selinger 2001-2017
</metadata>
<g  transform="translate(-30,275) scale(0.125,-0.125)" id="icon" stroke="none">
<path d="M540 1295 l0 -505 139 0 139 0 56 -95 c31 -52 59 -95 61 -95 2 0 30
43 61 95 l56 95 409 0 409 0 0 505 0 505 -665 0 -665 0 0 -505z m1240 0 l0
-415 -389 0 -390 0 -31 -55 c-17 -30 -33 -55 -35 -55 -2 0 -18 25 -35 55 l-31
55 -120 0 -119 0 0 415 0 415 575 0 575 0 0 -415z"/>
<path d="M1363 1449 c-17 -5 -49 -29 -71 -54 l-40 -45 -180 0 c-195 0 -212 -4
-212 -55 0 -51 17 -55 212 -55 l180 0 40 -45 c67 -76 167 -84 237 -19 l36 33
-52 1 c-49 0 -54 2 -89 45 l-36 45 36 45 c34 41 41 45 83 45 l46 0 -23 25
c-37 40 -102 53 -167 34z"/>
</g>
</svg>
